<svg width="22" height="29" viewBox="0 0 22 29" fill="none" xmlns="http://www.w3.org/2000/svg">
<path d="M15.6472 0.315125H4.45189C2.81636 0.315125 1.48516 1.64516 1.48516 3.27732V14.2308H1.19534C0.535233 14.2308 0 14.7647 0 15.4244V22.6632C0 23.3229 0.535233 23.8569 1.19534 23.8569H1.48516V25.1843C1.48516 26.8182 2.81642 28.1464 4.45189 28.1464H19.7274C21.362 28.1464 22.6932 26.8181 22.6932 25.1843V7.32572L15.6472 0.315125ZM5.70961 20.8192C6.05274 20.8192 6.43315 20.7447 6.65734 20.6555L6.82853 21.5415C6.61988 21.6462 6.14975 21.7582 5.53837 21.7582C3.79999 21.7582 2.90476 20.6783 2.90476 19.2481C2.90476 17.5351 4.12837 16.5816 5.65007 16.5816C6.23953 16.5816 6.68694 16.7008 6.88825 16.8046L6.65734 17.706C6.42586 17.6087 6.10517 17.5196 5.70239 17.5196C4.79941 17.5196 4.09831 18.0636 4.09831 19.1808C4.09831 20.1861 4.69511 20.8192 5.70961 20.8192ZM19.7274 26.3323H4.45189C3.81861 26.3323 3.30286 25.8174 3.30286 25.1843V23.8569H17.5428C18.203 23.8569 18.7383 23.3229 18.7383 22.6632V15.4244C18.7383 14.7647 18.203 14.2308 17.5428 14.2308H3.30286V3.27732C3.30286 2.64587 3.81861 2.13097 4.45189 2.13097L14.9675 2.12006V6.00105C14.9675 7.13459 15.8887 8.0553 17.0249 8.0553L20.8325 8.04444L20.8754 25.1843C20.8754 25.8174 20.3606 26.3323 19.7274 26.3323ZM8.83042 19.5756C7.99479 19.2854 7.45002 18.8233 7.45002 18.0936C7.45002 17.2365 8.16609 16.5816 9.35241 16.5816C9.91915 16.5816 10.3374 16.7007 10.6353 16.8345L10.382 17.7507C10.1807 17.6542 9.82255 17.5122 9.3301 17.5122C8.83765 17.5122 8.59894 17.7361 8.59894 17.9963C8.59894 18.3165 8.88228 18.4585 9.53146 18.704C10.4194 19.0316 10.8371 19.4938 10.8371 20.2016C10.8371 21.043 10.1879 21.7582 8.80799 21.7582C8.2335 21.7582 7.66635 21.609 7.38301 21.4524L7.61438 20.5145C7.92015 20.671 8.39029 20.8266 8.87499 20.8266C9.3971 20.8266 9.67316 20.6109 9.67316 20.2833C9.67322 19.9705 9.43451 19.7912 8.83042 19.5756ZM12.8609 19.5756C12.0254 19.2854 11.4805 18.8233 11.4805 18.0936C11.4805 17.2365 12.1967 16.5816 13.3829 16.5816C13.9502 16.5816 14.3674 16.7007 14.6663 16.8345L14.4126 17.7507C14.2112 17.6542 13.8532 17.5122 13.3606 17.5122C12.8682 17.5122 12.6295 17.7361 12.6295 17.9963C12.6295 18.3165 12.9128 18.4585 13.5621 18.704C14.45 19.0316 14.8678 19.4938 14.8678 20.2016C14.8678 21.043 14.2187 21.7582 12.8387 21.7582C12.2641 21.7582 11.6969 21.609 11.4136 21.4524L11.645 20.5145C11.9507 20.671 12.4208 20.8266 12.9055 20.8266C13.4277 20.8266 13.7038 20.6109 13.7038 20.2833C13.7037 19.9705 13.4649 19.7912 12.8609 19.5756Z" fill="#3276CF"/>
</svg>
