<svg width="532" height="532" viewBox="0 0 532 532" fill="none" xmlns="http://www.w3.org/2000/svg">
<path d="M454.09 77.9102C403.85 27.6709 337.05 0 266 0C194.95 0 128.15 27.6709 77.9099 77.9102C27.6702 128.15 0 194.95 0 266C0 330.851 23.05 392.16 65.29 440.57C69.3201 445.2 73.53 449.71 77.9099 454.091C78.9399 455.12 79.98 456.15 81.03 457.15C86.8701 462.811 92.9202 468.171 99.1702 473.21C99.2 473.24 99.22 473.261 99.25 473.28C146.36 511.33 204.59 532 266 532C337.05 532 403.85 504.33 454.09 454.091C457.83 450.351 461.44 446.521 464.92 442.61C508.29 393.891 532 331.771 532 266C532 194.95 504.33 128.15 454.09 77.9102ZM464.27 440.12C456.4 449.07 447.94 457.49 438.94 465.301C421.87 480.15 402.87 492.83 382.38 502.931C375.19 506.48 367.82 509.71 360.28 512.601C330.99 523.841 299.2 530 266 530C233.96 530 203.24 524.261 174.81 513.761C163.14 509.46 151.86 504.351 141.03 498.5C139.44 497.641 137.86 496.771 136.29 495.881C128.03 491.2 120.04 486.091 112.37 480.57C101.38 472.69 91.02 463.98 81.3899 454.54C75.99 449.25 70.8301 443.74 65.9001 438.011C26.0901 391.771 2 331.65 2 266C2 120.431 120.43 2 266 2C411.57 2 530 120.431 530 266C530 332.66 505.17 393.62 464.27 440.12Z" fill="#3F3D56"/>
</svg>
